<svg width="157" height="466" viewBox="0 0 157 466" fill="none" xmlns="http://www.w3.org/2000/svg">
<path d="M17.7071 70.4099C18.0976 70.0193 18.0976 69.3862 17.7071 68.9957L11.3431 62.6317C10.9526 62.2412 10.3195 62.2412 9.92893 62.6317C9.53841 63.0222 9.53841 63.6554 9.92893 64.0459L15.5858 69.7028L9.92893 75.3596C9.53841 75.7501 9.53841 76.3833 9.92893 76.7738C10.3195 77.1644 10.9526 77.1644 11.3431 76.7738L17.7071 70.4099ZM2 70.7028H17V68.7028H2V70.7028Z" fill="white"/>
<path d="M17.7071 146.786C18.0976 146.396 18.0976 145.763 17.7071 145.372L11.3431 139.008C10.9526 138.618 10.3195 138.618 9.92893 139.008C9.53841 139.399 9.53841 140.032 9.92893 140.422L15.5858 146.079L9.92893 151.736C9.53841 152.126 9.53841 152.76 9.92893 153.15C10.3195 153.541 10.9526 153.541 11.3431 153.15L17.7071 146.786ZM2 147.079H17V145.079H2V147.079Z" fill="white"/>
<path d="M17.7071 224.646C18.0976 224.255 18.0976 223.622 17.7071 223.231L11.3431 216.868C10.9526 216.477 10.3195 216.477 9.92893 216.868C9.53841 217.258 9.53841 217.891 9.92893 218.282L15.5858 223.939L9.92893 229.595C9.53841 229.986 9.53841 230.619 9.92893 231.01C10.3195 231.4 10.9526 231.4 11.3431 231.01L17.7071 224.646ZM2 224.939H17V222.939H2V224.939Z" fill="white"/>
<path d="M17.7071 302.505C18.0976 302.115 18.0976 301.482 17.7071 301.091L11.3431 294.727C10.9526 294.337 10.3195 294.337 9.92893 294.727C9.53841 295.118 9.53841 295.751 9.92893 296.141L15.5858 301.798L9.92893 307.455C9.53841 307.845 9.53841 308.479 9.92893 308.869C10.3195 309.26 10.9526 309.26 11.3431 308.869L17.7071 302.505ZM2 302.798H17V300.798H2V302.798Z" fill="white"/>
<path d="M17.7071 380.365C18.0976 379.974 18.0976 379.341 17.7071 378.95L11.3431 372.586C10.9526 372.196 10.3195 372.196 9.92893 372.586C9.53841 372.977 9.53841 373.61 9.92893 374.001L15.5858 379.657L9.92893 385.314C9.53841 385.705 9.53841 386.338 9.92893 386.729C10.3195 387.119 10.9526 387.119 11.3431 386.729L17.7071 380.365ZM2 380.657H17V378.657H2V380.657Z" fill="white"/>
<path d="M16.7071 458.966C17.0976 458.575 17.0976 457.942 16.7071 457.551L10.3431 451.187C9.95262 450.797 9.31946 450.797 8.92893 451.187C8.53841 451.578 8.53841 452.211 8.92893 452.602L14.5858 458.258L8.92893 463.915C8.53841 464.306 8.53841 464.939 8.92893 465.33C9.31946 465.72 9.95262 465.72 10.3431 465.33L16.7071 458.966ZM1 459.258H16V457.258H1V459.258Z" fill="white"/>
<path d="M1 459L1 23.7286" stroke="white" stroke-width="2"/>
<path d="M0 22.9871L157 22.9871" stroke="white" stroke-width="2"/>
<line x1="156" y1="23.7286" x2="156" y2="4.39359e-05" stroke="white" stroke-width="2"/>
</svg>
