<svg width="380" height="243" viewBox="0 0 380 243" fill="none" xmlns="http://www.w3.org/2000/svg">
<path d="M372 159.543L373 159.543L373 158.814L372.305 158.591L372 159.543ZM371.292 242.707C371.683 243.098 372.316 243.098 372.707 242.707L379.071 236.343C379.461 235.953 379.461 235.32 379.071 234.929C378.68 234.538 378.047 234.538 377.656 234.929L371.999 240.586L366.343 234.929C365.952 234.538 365.319 234.538 364.928 234.929C364.538 235.319 364.538 235.953 364.928 236.343L371.292 242.707ZM0.999998 40.6042L-1.77487e-06 40.6042L-1.80676e-06 41.3337L0.6947 41.5565L0.999998 40.6042ZM371 159.543L370.999 242L372.999 242L373 159.543L371 159.543ZM3.05176e-05 -1.70122e-05L-1.77487e-06 40.6042L2 40.6042L2.00003 -1.54216e-05L3.05176e-05 -1.70122e-05ZM0.6947 41.5565L371.695 160.496L372.305 158.591L1.3053 39.6519L0.6947 41.5565Z" fill="black" fill-opacity="0.3"/>
</svg>
