<svg width="98" height="86" viewBox="0 0 98 86" fill="none" xmlns="http://www.w3.org/2000/svg">
<path d="M90 56.0379L91 56.0379L91 55.4026L90.4249 55.1327L90 56.0379ZM89.2928 85.7071C89.6833 86.0976 90.3164 86.0976 90.707 85.7071L97.071 79.3432C97.4615 78.9527 97.4615 78.3195 97.071 77.929C96.6804 77.5384 96.0473 77.5384 95.6568 77.929L89.9999 83.5858L84.343 77.9289C83.9525 77.5384 83.3194 77.5384 82.9288 77.9289C82.5383 78.3194 82.5383 78.9526 82.9288 79.3431L89.2928 85.7071ZM0.999999 14.2618L-6.38892e-07 14.2618L-6.67351e-07 14.8971L0.575088 15.167L0.999999 14.2618ZM89 56.0379L88.9999 85L90.9999 85L91 56.0379L89 56.0379ZM7.62939e-06 -4.37361e-06L-6.38892e-07 14.2618L2 14.2618L2.00001 -3.2184e-06L7.62939e-06 -4.37361e-06ZM0.575088 15.167L89.5751 56.9432L90.4249 55.1327L1.42491 13.3566L0.575088 15.167Z" fill="black" fill-opacity="0.3"/>
</svg>
