<svg width="20" height="20" viewBox="0 0 20 20" fill="none" xmlns="http://www.w3.org/2000/svg">
<g clip-path="url(#clip0_9_217)">
<path d="M7.62498 17.9167C8.0622 17.9167 8.41665 17.5622 8.41665 17.125C8.41665 16.6878 8.0622 16.3333 7.62498 16.3333C7.18775 16.3333 6.83331 16.6878 6.83331 17.125C6.83331 17.5622 7.18775 17.9167 7.62498 17.9167Z" stroke="#000000" stroke-width="2" stroke-linecap="round" stroke-linejoin="round"/>
<path d="M16.3334 17.9167C16.7706 17.9167 17.125 17.5622 17.125 17.125C17.125 16.6878 16.7706 16.3333 16.3334 16.3333C15.8961 16.3333 15.5417 16.6878 15.5417 17.125C15.5417 17.5622 15.8961 17.9167 16.3334 17.9167Z" stroke="#000000" stroke-width="2" stroke-linecap="round" stroke-linejoin="round"/>
<path d="M1.29169 1.29167H4.45835L6.58002 11.8921C6.65241 12.2566 6.8507 12.584 7.14016 12.817C7.42962 13.05 7.79182 13.1738 8.16335 13.1667H15.8584C16.2299 13.1738 16.5921 13.05 16.8815 12.817C17.171 12.584 17.3693 12.2566 17.4417 11.8921L18.7084 5.25H5.25002" stroke="#000000" stroke-width="2" stroke-linecap="round" stroke-linejoin="round"/>
</g>
<defs>
<clipPath id="clip0_9_217">
<rect width="19" height="19" fill="white" transform="translate(0.5 0.5)"/>
</clipPath>
</defs>
</svg>
