<svg width="17" height="17" viewBox="0 0 17 17" fill="none" xmlns="http://www.w3.org/2000/svg">
<path d="M2.28918 4.12048H3.66268H14.6506" stroke="#BF4B4B" stroke-width="1.37349" stroke-linecap="round" stroke-linejoin="round"/>
<path d="M13.2771 4.12048V13.7349C13.2771 14.0992 13.1323 14.4486 12.8748 14.7061C12.6172 14.9637 12.2678 15.1084 11.9036 15.1084H5.03609C4.67182 15.1084 4.32246 14.9637 4.06488 14.7061C3.8073 14.4486 3.6626 14.0992 3.6626 13.7349V4.12048M5.72284 4.12048V2.74699C5.72284 2.38272 5.86755 2.03336 6.12513 1.77578C6.38271 1.5182 6.73206 1.3735 7.09633 1.3735H9.84332C10.2076 1.3735 10.5569 1.5182 10.8145 1.77578C11.0721 2.03336 11.2168 2.38272 11.2168 2.74699V4.12048" stroke="#BF4B4B" stroke-width="1.37349" stroke-linecap="round" stroke-linejoin="round"/>
<path d="M7.09644 7.55421V11.6747" stroke="#BF4B4B" stroke-width="1.37349" stroke-linecap="round" stroke-linejoin="round"/>
<path d="M9.84338 7.55421V11.6747" stroke="#BF4B4B" stroke-width="1.37349" stroke-linecap="round" stroke-linejoin="round"/>
</svg>
