<svg width="25" height="24" viewBox="0 0 25 24" fill="none" xmlns="http://www.w3.org/2000/svg">
<path d="M5.58139 17H4.59302C4.06875 17 3.56596 16.7893 3.19525 16.4142C2.82454 16.0391 2.61627 15.5304 2.61627 15V5C2.61627 4.46957 2.82454 3.96086 3.19525 3.58579C3.56596 3.21071 4.06875 3 4.59302 3H20.407C20.9312 3 21.434 3.21071 21.8047 3.58579C22.1755 3.96086 22.3837 4.46957 22.3837 5V15C22.3837 15.5304 22.1755 16.0391 21.8047 16.4142C21.434 16.7893 20.9312 17 20.407 17H19.4186" stroke="black" stroke-width="2" stroke-linecap="round" stroke-linejoin="round"/>
<path d="M12.5 15L17.4418 21H7.55811L12.5 15Z" stroke="black" stroke-width="2" stroke-linecap="round" stroke-linejoin="round"/>
</svg>
