<svg width="37" height="37" viewBox="0 0 37 37" fill="none" xmlns="http://www.w3.org/2000/svg">
<path d="M24.6666 33.9168V27.9505C24.7245 27.2154 24.6252 26.4764 24.3753 25.7826C24.1254 25.0889 23.7307 24.4562 23.2175 23.9268C28.0583 23.3872 33.1458 21.5526 33.1458 13.1351C33.1454 10.9827 32.3175 8.91281 30.8333 7.35388C31.5361 5.47074 31.4864 3.38925 30.6946 1.54179C30.6946 1.54179 28.8754 1.00221 24.6666 3.82346C21.1332 2.86581 17.4085 2.86581 13.875 3.82346C9.66623 1.00221 7.84706 1.54179 7.84706 1.54179C7.05523 3.38925 7.00554 5.47074 7.70831 7.35388C6.21309 8.92437 5.38429 11.013 5.39581 13.1814C5.39581 21.5372 10.4833 23.3718 15.3241 23.973C14.8169 24.4972 14.4258 25.1222 14.1761 25.8075C13.9264 26.4928 13.8238 27.223 13.875 27.9505V33.9168M13.875 29.2918C6.16665 31.6043 6.16665 25.4376 3.08331 24.6668L13.875 29.2918Z" stroke="white" stroke-width="2" stroke-linecap="round" stroke-linejoin="round"/>
</svg>
