<svg width="248" height="268" viewBox="0 0 248 268" fill="none" xmlns="http://www.w3.org/2000/svg">
<path d="M24.6667 78.1667V44.6667H203.333V78.1667" stroke="#E7D400" stroke-width="2" stroke-linecap="round" stroke-linejoin="round"/>
<path d="M80.5 223.333H147.5" stroke="#E7D400" stroke-width="2" stroke-linecap="round" stroke-linejoin="round"/>
<path d="M114 44.6667V223.333" stroke="#E7D400" stroke-width="2" stroke-linecap="round" stroke-linejoin="round"/>
<path d="M144.2 127.397C143 127.397 141.934 127.17 141 126.717C140.067 126.25 139.334 125.617 138.8 124.817C138.28 124.017 138.02 123.097 138.02 122.057C138.02 121.203 138.174 120.437 138.48 119.757C138.787 119.077 139.207 118.49 139.74 117.997C140.287 117.503 140.927 117.123 141.66 116.857C142.394 116.59 143.18 116.457 144.02 116.457C144.78 116.457 145.487 116.583 146.14 116.837C146.807 117.09 147.387 117.443 147.88 117.897C148.374 118.35 148.754 118.89 149.02 119.517C149.3 120.13 149.434 120.81 149.42 121.557L149.4 122.517H139.7L139.24 120.877H147.62L147.32 121.137V120.657C147.267 120.217 147.08 119.823 146.76 119.477C146.44 119.13 146.04 118.857 145.56 118.657C145.08 118.457 144.567 118.357 144.02 118.357C143.22 118.357 142.52 118.483 141.92 118.737C141.334 118.99 140.874 119.383 140.54 119.917C140.22 120.437 140.06 121.103 140.06 121.917C140.06 122.65 140.247 123.283 140.62 123.817C140.994 124.35 141.514 124.763 142.18 125.057C142.847 125.35 143.614 125.497 144.48 125.497C145.227 125.497 145.874 125.39 146.42 125.177C146.967 124.963 147.487 124.67 147.98 124.297L148.96 125.797C148.614 126.09 148.18 126.363 147.66 126.617C147.14 126.857 146.58 127.05 145.98 127.197C145.394 127.33 144.8 127.397 144.2 127.397ZM157.793 127.397C156.766 127.397 155.853 127.163 155.053 126.697C154.253 126.217 153.62 125.563 153.153 124.737C152.7 123.91 152.473 122.97 152.473 121.917C152.473 120.863 152.706 119.93 153.173 119.117C153.653 118.29 154.306 117.643 155.133 117.177C155.96 116.71 156.9 116.477 157.953 116.477C158.593 116.477 159.18 116.563 159.713 116.737C160.26 116.897 160.733 117.123 161.133 117.417C161.533 117.71 161.853 118.037 162.093 118.397C162.333 118.743 162.466 119.11 162.493 119.497L161.993 119.417V116.697H164.053V127.197H161.993V124.537L162.433 124.517C162.38 124.85 162.22 125.19 161.953 125.537C161.7 125.87 161.353 126.177 160.913 126.457C160.486 126.737 160.006 126.963 159.473 127.137C158.94 127.31 158.38 127.397 157.793 127.397ZM158.313 125.497C159.046 125.497 159.693 125.343 160.253 125.037C160.826 124.73 161.273 124.31 161.593 123.777C161.913 123.23 162.073 122.61 162.073 121.917C162.073 121.25 161.913 120.65 161.593 120.117C161.273 119.583 160.826 119.163 160.253 118.857C159.693 118.537 159.046 118.377 158.313 118.377C157.58 118.377 156.933 118.537 156.373 118.857C155.813 119.163 155.373 119.583 155.053 120.117C154.733 120.65 154.573 121.25 154.573 121.917C154.573 122.61 154.733 123.23 155.053 123.777C155.373 124.31 155.813 124.73 156.373 125.037C156.933 125.343 157.58 125.497 158.313 125.497Z" fill="#E7D400"/>
</svg>
