<svg width="67" height="61" viewBox="0 0 67 61" fill="none" xmlns="http://www.w3.org/2000/svg">
<g clip-path="url(#clip0_39_734)">
<path d="M11.1667 17.7917V10.1667H55.8333V17.7917" stroke="#E7D400" stroke-width="2" stroke-linecap="round" stroke-linejoin="round"/>
<path d="M25.125 50.8333H41.875" stroke="#E7D400" stroke-width="2" stroke-linecap="round" stroke-linejoin="round"/>
<path d="M33.5 10.1667V50.8334" stroke="#E7D400" stroke-width="2" stroke-linecap="round" stroke-linejoin="round"/>
<path d="M49.3977 52.18C48.3177 52.18 47.3577 51.976 46.5177 51.568C45.6777 51.148 45.0177 50.578 44.5377 49.858C44.0697 49.138 43.8357 48.31 43.8357 47.374C43.8357 46.606 43.9737 45.916 44.2497 45.304C44.5257 44.692 44.9037 44.164 45.3837 43.72C45.8757 43.276 46.4517 42.934 47.1117 42.694C47.7717 42.454 48.4797 42.334 49.2357 42.334C49.9197 42.334 50.5557 42.448 51.1437 42.676C51.7437 42.904 52.2657 43.222 52.7097 43.63C53.1537 44.038 53.4957 44.524 53.7357 45.088C53.9877 45.64 54.1077 46.252 54.0957 46.924L54.0777 47.788H45.3477L44.9337 46.312H52.4757L52.2057 46.546V46.114C52.1577 45.718 51.9897 45.364 51.7017 45.052C51.4137 44.74 51.0537 44.494 50.6217 44.314C50.1897 44.134 49.7277 44.044 49.2357 44.044C48.5157 44.044 47.8857 44.158 47.3457 44.386C46.8177 44.614 46.4037 44.968 46.1037 45.448C45.8157 45.916 45.6717 46.516 45.6717 47.248C45.6717 47.908 45.8397 48.478 46.1757 48.958C46.5117 49.438 46.9797 49.81 47.5797 50.074C48.1797 50.338 48.8697 50.47 49.6497 50.47C50.3217 50.47 50.9037 50.374 51.3957 50.182C51.8877 49.99 52.3557 49.726 52.7997 49.39L53.6817 50.74C53.3697 51.004 52.9797 51.25 52.5117 51.478C52.0437 51.694 51.5397 51.868 50.9997 52C50.4717 52.12 49.9377 52.18 49.3977 52.18ZM61.6311 52.18C60.7071 52.18 59.8851 51.97 59.1651 51.55C58.4451 51.118 57.8751 50.53 57.4551 49.786C57.0471 49.042 56.8431 48.196 56.8431 47.248C56.8431 46.3 57.0531 45.46 57.4731 44.728C57.9051 43.984 58.4931 43.402 59.2371 42.982C59.9811 42.562 60.8271 42.352 61.7751 42.352C62.3511 42.352 62.8791 42.43 63.3591 42.586C63.8511 42.73 64.2771 42.934 64.6371 43.198C64.9971 43.462 65.2851 43.756 65.5011 44.08C65.7171 44.392 65.8371 44.722 65.8611 45.07L65.4111 44.998V42.55H67.2651V52H65.4111V49.606L65.8071 49.588C65.7591 49.888 65.6151 50.194 65.3751 50.506C65.1471 50.806 64.8351 51.082 64.4391 51.334C64.0551 51.586 63.6231 51.79 63.1431 51.946C62.6631 52.102 62.1591 52.18 61.6311 52.18ZM62.0991 50.47C62.7591 50.47 63.3411 50.332 63.8451 50.056C64.3611 49.78 64.7631 49.402 65.0511 48.922C65.3391 48.43 65.4831 47.872 65.4831 47.248C65.4831 46.648 65.3391 46.108 65.0511 45.628C64.7631 45.148 64.3611 44.77 63.8451 44.494C63.3411 44.206 62.7591 44.062 62.0991 44.062C61.4391 44.062 60.8571 44.206 60.3531 44.494C59.8491 44.77 59.4531 45.148 59.1651 45.628C58.8771 46.108 58.7331 46.648 58.7331 47.248C58.7331 47.872 58.8771 48.43 59.1651 48.922C59.4531 49.402 59.8491 49.78 60.3531 50.056C60.8571 50.332 61.4391 50.47 62.0991 50.47Z" fill="#E7D400"/>
</g>
<defs>
<clipPath id="clip0_39_734">
<rect width="67" height="61" fill="white"/>
</clipPath>
</defs>
</svg>
